<svg width="16" height="16" viewBox="0 0 16 16" fill="none" xmlns="http://www.w3.org/2000/svg">
<path d="M10.7935 1.33331H5.20683C2.78016 1.33331 1.3335 2.77998 1.3335 5.20665V10.7866C1.3335 13.22 2.78016 14.6666 5.20683 14.6666H10.7868C13.2135 14.6666 14.6602 13.22 14.6602 10.7933V5.20665C14.6668 2.77998 13.2202 1.33331 10.7935 1.33331ZM11.2135 7.21331C11.0202 7.40665 10.7002 7.40665 10.5068 7.21331L8.50016 5.20665V12C8.50016 12.2733 8.2735 12.5 8.00016 12.5C7.72683 12.5 7.50016 12.2733 7.50016 12V5.20665L5.4935 7.21331C5.30016 7.40665 4.98016 7.40665 4.78683 7.21331C4.68683 7.11331 4.64016 6.98665 4.64016 6.85998C4.64016 6.73331 4.6935 6.59998 4.78683 6.50665L7.64683 3.64665C7.74016 3.55331 7.86683 3.49998 8.00016 3.49998C8.1335 3.49998 8.26016 3.55331 8.3535 3.64665L11.2135 6.50665C11.4068 6.69998 11.4068 7.01331 11.2135 7.21331Z" fill="#054753"/>
</svg>
