<svg width="32" height="32" viewBox="0 0 32 32" fill="none" xmlns="http://www.w3.org/2000/svg">
<path d="M20.12 27.56C20.3734 27.56 20.6267 27.4667 20.8267 27.2667C21.2134 26.88 21.2134 26.24 20.8267 25.8534L12.1334 17.16C11.4934 16.52 11.4934 15.48 12.1334 14.84L20.8267 6.14669C21.2134 5.76003 21.2134 5.12003 20.8267 4.73336C20.44 4.34669 19.8 4.34669 19.4134 4.73336L10.72 13.4267C10.04 14.1067 9.65337 15.0267 9.65337 16C9.65337 16.9734 10.0267 17.8934 10.72 18.5734L19.4134 27.2667C19.6134 27.4534 19.8667 27.56 20.12 27.56Z" fill="#292D32"/>
</svg>
