<svg width="70" height="70" viewBox="0 0 70 70" fill="none" xmlns="http://www.w3.org/2000/svg">
<g clip-path="url(#clip0_936_24553)">
<rect width="70" height="70" rx="32" fill="#F0FDF5"/>
<path d="M70 61.2324V70.0028H0V61.2645C4.07152 55.8233 9.3564 51.4072 15.4344 48.3671C21.5124 45.3271 28.2158 43.7472 35.0117 43.7528C49.315 43.7528 62.02 50.6187 70 61.2324ZM46.6725 26.2499C46.6725 29.3441 45.4433 32.3116 43.2554 34.4995C41.0675 36.6874 38.1 37.9166 35.0058 37.9166C31.9116 37.9166 28.9442 36.6874 26.7563 34.4995C24.5683 32.3116 23.3392 29.3441 23.3392 26.2499C23.3392 23.1557 24.5683 20.1883 26.7563 18.0003C28.9442 15.8124 31.9116 14.5833 35.0058 14.5833C38.1 14.5833 41.0675 15.8124 43.2554 18.0003C45.4433 20.1883 46.6725 23.1557 46.6725 26.2499Z" fill="white"/>
</g>
<rect x="0.958824" y="0.958824" width="68.0824" height="68.0824" rx="31.0412" stroke="#BCF6D4" stroke-width="1.91765"/>
<defs>
<clipPath id="clip0_936_24553">
<rect width="70" height="70" rx="32" fill="white"/>
</clipPath>
</defs>
</svg>
