<svg width="32" height="32" viewBox="0 0 32 32" fill="none" xmlns="http://www.w3.org/2000/svg">
<path d="M12.2266 20.7733C11.9733 20.7733 11.72 20.68 11.52 20.48C11.1333 20.0933 11.1333 19.4533 11.52 19.0666L19.0666 11.52C19.4533 11.1333 20.0933 11.1333 20.48 11.52C20.8666 11.9066 20.8666 12.5466 20.48 12.9333L12.9333 20.48C12.7466 20.68 12.48 20.7733 12.2266 20.7733Z" fill="#303632"/>
<path d="M19.7733 20.7733C19.52 20.7733 19.2666 20.68 19.0666 20.48L11.52 12.9333C11.1333 12.5466 11.1333 11.9066 11.52 11.52C11.9066 11.1333 12.5466 11.1333 12.9333 11.52L20.48 19.0666C20.8666 19.4533 20.8666 20.0933 20.48 20.48C20.28 20.68 20.0266 20.7733 19.7733 20.7733Z" fill="#303632"/>
<path d="M19.9998 30.3332H11.9998C4.75984 30.3332 1.6665 27.2398 1.6665 19.9998V11.9998C1.6665 4.75984 4.75984 1.6665 11.9998 1.6665H19.9998C27.2398 1.6665 30.3332 4.75984 30.3332 11.9998V19.9998C30.3332 27.2398 27.2398 30.3332 19.9998 30.3332ZM11.9998 3.6665C5.85317 3.6665 3.6665 5.85317 3.6665 11.9998V19.9998C3.6665 26.1465 5.85317 28.3332 11.9998 28.3332H19.9998C26.1465 28.3332 28.3332 26.1465 28.3332 19.9998V11.9998C28.3332 5.85317 26.1465 3.6665 19.9998 3.6665H11.9998Z" fill="#303632"/>
</svg>
