<svg width="32" height="32" viewBox="0 0 32 32" fill="none" xmlns="http://www.w3.org/2000/svg">
<path d="M14.7998 30.3337H9.19984C3.9865 30.3337 1.6665 28.0137 1.6665 22.8003V17.2003C1.6665 11.987 3.9865 9.66699 9.19984 9.66699H14.7998C20.0132 9.66699 22.3332 11.987 22.3332 17.2003V22.8003C22.3332 28.0137 20.0132 30.3337 14.7998 30.3337ZM9.19984 11.667C5.0665 11.667 3.6665 13.067 3.6665 17.2003V22.8003C3.6665 26.9337 5.0665 28.3337 9.19984 28.3337H14.7998C18.9332 28.3337 20.3332 26.9337 20.3332 22.8003V17.2003C20.3332 13.067 18.9332 11.667 14.7998 11.667H9.19984Z" fill="#303632"/>
<path d="M22.7998 22.3337H21.3332C20.7865 22.3337 20.3332 21.8803 20.3332 21.3337V17.2003C20.3332 13.067 18.9332 11.667 14.7998 11.667H10.6665C10.1198 11.667 9.6665 11.2137 9.6665 10.667V9.20033C9.6665 3.98699 11.9865 1.66699 17.1998 1.66699H22.7998C28.0132 1.66699 30.3332 3.98699 30.3332 9.20033V14.8003C30.3332 20.0137 28.0132 22.3337 22.7998 22.3337ZM22.3332 20.3337H22.7998C26.9332 20.3337 28.3332 18.9337 28.3332 14.8003V9.20033C28.3332 5.06699 26.9332 3.66699 22.7998 3.66699H17.1998C13.0665 3.66699 11.6665 5.06699 11.6665 9.20033V9.66699H14.7998C20.0132 9.66699 22.3332 11.987 22.3332 17.2003V20.3337Z" fill="#303632"/>
</svg>
