<svg width="24" height="25" viewBox="0 0 24 25" fill="none" xmlns="http://www.w3.org/2000/svg">
<path d="M11.75 22.5C5.82 22.5 1 17.68 1 11.75C1 5.82 5.82 1 11.75 1C17.68 1 22.5 5.82 22.5 11.75C22.5 17.68 17.68 22.5 11.75 22.5ZM11.75 2.5C6.65 2.5 2.5 6.65 2.5 11.75C2.5 16.85 6.65 21 11.75 21C16.85 21 21 16.85 21 11.75C21 6.65 16.85 2.5 11.75 2.5Z" fill="#25C269"/>
<path d="M8.452 18V13.7595H7.165V12.7035H8.452V11.3505H7.165V10.2945H8.452V6.219H10.168L11.7355 10.2945H13.6825V6.219H14.986V10.2945H16.273V11.3505H14.986V12.7035H16.273V13.7595H14.986V18H13.2535L11.686 13.7595H9.739V18H8.452ZM9.739 12.7035H11.29L10.795 11.3505H9.706L9.739 12.7035ZM13.6825 15.6735H13.7485L13.699 13.7595H13.006L13.6825 15.6735ZM9.706 10.2945H10.399L9.706 8.2485H9.64L9.706 10.2945ZM12.61 12.7035H13.7155L13.6825 11.3505H12.115L12.61 12.7035Z" fill="#25C269"/>
</svg>
