<svg width="24" height="25" viewBox="0 0 24 25" fill="none" xmlns="http://www.w3.org/2000/svg">
<path d="M20.8889 2.03442H3.11111C2.81643 2.03442 2.53381 2.15149 2.32544 2.35986C2.11706 2.56823 2 2.85085 2 3.14553V20.9233C2 21.218 2.11706 21.5006 2.32544 21.709C2.53381 21.9174 2.81643 22.0344 3.11111 22.0344H12.6833V14.3011H10.0856V11.2733H12.6833V9.05109C12.6833 6.46776 14.2611 5.05998 16.5722 5.05998C17.3489 5.05776 18.1267 5.09776 18.9 5.17887V7.86776H17.3056C16.0522 7.86776 15.8078 8.46554 15.8078 9.33998V11.2678H18.8044L18.4156 14.2955H15.8067V22.0344H20.8889C21.1836 22.0344 21.4662 21.9174 21.6746 21.709C21.8829 21.5006 22 21.218 22 20.9233V3.14553C22 2.85085 21.8829 2.56823 21.6746 2.35986C21.4662 2.15149 21.1836 2.03442 20.8889 2.03442Z" fill="#303632"/>
</svg>
