<svg width="28" height="28" viewBox="0 0 28 28" fill="none" xmlns="http://www.w3.org/2000/svg">
<rect width="28" height="28" rx="4.39122" fill="#054753" fill-opacity="0.1"/>
<path d="M21.5751 9.81667C20.8668 9.03334 19.6834 8.64167 17.9668 8.64167H17.7668V8.60834C17.7668 7.20834 17.7668 5.47501 14.6334 5.47501H13.3668C10.2334 5.47501 10.2334 7.21667 10.2334 8.60834V8.65001H10.0334C8.30845 8.65001 7.13345 9.04167 6.42511 9.82501C5.60011 10.7417 5.62511 11.975 5.70845 12.8167L5.71678 12.875L5.77757 13.5133C5.79183 13.6631 5.87258 13.7984 5.99858 13.8807C6.20063 14.0125 6.51037 14.2113 6.70011 14.3167C6.81678 14.3917 6.94178 14.4583 7.06678 14.525C8.49178 15.3083 10.0584 15.8333 11.6501 16.0917C11.7251 16.875 12.0668 17.7917 13.8918 17.7917C15.7168 17.7917 16.0751 16.8833 16.1334 16.075C17.8334 15.8 19.4751 15.2083 20.9584 14.3417C21.0084 14.3167 21.0418 14.2917 21.0834 14.2667C21.4036 14.0857 21.7355 13.864 22.0401 13.6453C22.1533 13.5641 22.2255 13.4379 22.2409 13.2994L22.2501 13.2167L22.2918 12.825C22.3001 12.775 22.3001 12.7333 22.3084 12.675C22.3751 11.8333 22.3584 10.6833 21.5751 9.81667ZM14.9084 15.525C14.9084 16.4083 14.9084 16.5417 13.8834 16.5417C12.8584 16.5417 12.8584 16.3833 12.8584 15.5333V14.4833H14.9084V15.525ZM11.4251 8.64167V8.60834C11.4251 7.19167 11.4251 6.66667 13.3668 6.66667H14.6334C16.5751 6.66667 16.5751 7.20001 16.5751 8.60834V8.65001H11.4251V8.64167Z" fill="#054753"/>
<path d="M21.2597 15.5091C21.6137 15.3418 22.0209 15.6224 21.9855 16.0123L21.7 19.1583C21.525 20.825 20.8416 22.525 17.175 22.525H10.825C7.15828 22.525 6.47495 20.825 6.29995 19.1667L6.02924 16.1888C5.9942 15.8034 6.39252 15.5233 6.74555 15.682C7.70476 16.1131 9.31676 16.8065 10.3527 17.0855C10.5168 17.1296 10.6499 17.2477 10.7243 17.4003C11.2385 18.4556 12.3277 19.0167 13.8916 19.0167C15.4401 19.0167 16.5426 18.434 17.0588 17.3755C17.1333 17.2227 17.2664 17.1048 17.4304 17.0604C18.5322 16.7619 20.2536 15.9846 21.2597 15.5091Z" fill="#054753"/>
</svg>
