<svg width="28" height="28" viewBox="0 0 28 28" fill="none" xmlns="http://www.w3.org/2000/svg">
<rect width="28" height="28" rx="4.39122" fill="#FF9933" fill-opacity="0.1"/>
<path d="M21.8167 13.5417L18.0667 11.375C17.875 11.2667 17.6334 11.2667 17.4417 11.375L13.6917 13.5417C13.6917 13.5417 13.6917 13.55 13.6834 13.55L10.25 15.5333L7.12503 13.725V10.1167L10.25 8.30833L13.375 10.1167V11.0667C13.375 11.4083 13.6584 11.6917 14 11.6917C14.3417 11.6917 14.625 11.4083 14.625 11.0667V9.75C14.625 9.525 14.5084 9.31667 14.3084 9.20833L10.5584 7.04167C10.3667 6.93334 10.125 6.93334 9.93336 7.04167L6.18336 9.20833C5.99169 9.31667 5.8667 9.525 5.8667 9.75V14.0833C5.8667 14.3083 5.98336 14.5167 6.18336 14.625L9.93336 16.7917C10.0334 16.85 10.1417 16.875 10.25 16.875C10.3584 16.875 10.4667 16.85 10.5667 16.7917L14.3167 14.625C14.3167 14.625 14.3167 14.6167 14.325 14.6167L17.7584 12.6333L20.8834 14.4417V18.05L17.7584 19.8583L14.6334 18.05V17.0333C14.6334 16.6917 14.35 16.4083 14.0084 16.4083C13.6667 16.4083 13.3834 16.6917 13.3834 17.0333V18.4083C13.3834 18.6333 13.5 18.8417 13.7 18.95L17.45 21.1167C17.55 21.175 17.6584 21.2 17.7667 21.2C17.875 21.2 17.9834 21.175 18.0834 21.1167L21.8334 18.95C22.025 18.8417 22.15 18.6333 22.15 18.4083V14.075C22.125 13.8583 22.0084 13.65 21.8167 13.5417Z" fill="#FF9933"/>
<path d="M7.75 10.9583V12.8833C7.75 13.1833 7.90833 13.4583 8.16667 13.6083L9.83333 14.5667C10.0917 14.7167 10.4083 14.7167 10.6667 14.5667L12.3333 13.6083C12.5917 13.4583 12.75 13.1833 12.75 12.8833V10.9583C12.75 10.6583 12.5917 10.3833 12.3333 10.2333L10.6667 9.27501C10.4083 9.12501 10.0917 9.12501 9.83333 9.27501L8.16667 10.2333C7.90833 10.3833 7.75 10.6583 7.75 10.9583Z" fill="#FF9933"/>
<path d="M15.25 15.2917V17.2167C15.25 17.5167 15.4083 17.7917 15.6667 17.9417L17.3333 18.9C17.5917 19.05 17.9083 19.05 18.1667 18.9L19.8333 17.9417C20.0917 17.7917 20.25 17.5167 20.25 17.2167V15.2917C20.25 14.9917 20.0917 14.7167 19.8333 14.5667L18.1667 13.6083C17.9083 13.4583 17.5917 13.4583 17.3333 13.6083L15.6667 14.5667C15.4083 14.7167 15.25 14.9917 15.25 15.2917Z" fill="#FF9933"/>
</svg>
