<svg width="28" height="28" viewBox="0 0 28 28" fill="none" xmlns="http://www.w3.org/2000/svg">
<rect width="28" height="28" rx="4.39122" fill="#ECF1FF"/>
<path d="M20.8082 18.6417C20.3665 19.05 19.8582 19.3583 19.3082 19.5667C18.7582 19.775 18.1665 19.375 18.1665 18.7833V17.6833C18.1665 16.0583 16.8498 14.7417 15.2248 14.7417H12.7748C11.1498 14.7417 9.83317 16.0583 9.83317 17.6833V19C9.83317 19.4583 9.45817 19.8333 8.99984 19.8333H8.62484C6.58317 19.525 5.6665 17.8667 5.6665 16.3833C5.6665 14.9833 6.48317 13.4333 8.25817 13C7.7665 11.0583 8.18317 9.23333 9.44984 7.90833C10.8915 6.4 13.1915 5.8 15.1748 6.41667C16.9998 6.975 18.2832 8.475 18.7415 10.5583C20.3332 10.9167 21.6082 12.1167 22.1165 13.7833C22.6665 15.5917 22.1665 17.45 20.8082 18.6417Z" fill="#6667FF"/>
<path d="M15.2252 15.9917H12.7752C11.7168 15.9917 11.0835 16.625 11.0835 17.6833V20.1333C11.0835 21.1917 11.7168 21.825 12.7752 21.825H15.2252C16.2835 21.825 16.9168 21.1917 16.9168 20.1333V17.6833C16.9168 16.625 16.2835 15.9917 15.2252 15.9917ZM15.3918 19.0417L14.0002 20.625L13.8335 20.8167C13.6085 21.075 13.4168 21.0083 13.4168 20.6583V19.175H12.7835C12.4918 19.175 12.4168 19 12.6085 18.7833L14.0002 17.2L14.1668 17.0083C14.3918 16.75 14.5835 16.8167 14.5835 17.1667V18.65H15.2168C15.5085 18.6417 15.5835 18.825 15.3918 19.0417Z" fill="#6667FF"/>
</svg>
