<svg width="24" height="25" viewBox="0 0 24 25" fill="none" xmlns="http://www.w3.org/2000/svg">
<path d="M21.9356 7.94735C21.9244 7.1062 21.7669 6.2734 21.4702 5.48622C21.213 4.82224 20.82 4.21923 20.3165 3.71571C19.813 3.21219 19.21 2.81924 18.546 2.56197C17.7689 2.27027 16.948 2.11255 16.1182 2.09551C15.0498 2.04775 14.711 2.03442 11.9989 2.03442C9.28676 2.03442 8.93914 2.03442 7.8785 2.09551C7.04904 2.11267 6.22851 2.27039 5.4518 2.56197C4.78771 2.81906 4.18461 3.21195 3.68107 3.71549C3.17753 4.21903 2.78464 4.82214 2.52754 5.48622C2.23526 6.26269 2.07788 7.08341 2.06219 7.91292C2.01444 8.98245 2 9.32119 2 12.0333C2 14.7454 2 15.092 2.06219 16.1537C2.07885 16.9844 2.23545 17.8041 2.52754 18.5826C2.78507 19.2465 3.17825 19.8494 3.68196 20.3527C4.18567 20.856 4.78883 21.2487 5.45291 21.5058C6.22749 21.8092 7.04817 21.9782 7.87961 22.0055C8.94913 22.0533 9.28787 22.0677 12 22.0677C14.7121 22.0677 15.0598 22.0677 16.1204 22.0055C16.9502 21.9892 17.7712 21.8318 18.5482 21.5402C19.212 21.2826 19.8149 20.8896 20.3183 20.3861C20.8218 19.8826 21.2149 19.2798 21.4725 18.6159C21.7646 17.8385 21.9211 17.0189 21.9378 16.187C21.9856 15.1186 22 14.7799 22 12.0666C21.9978 9.3545 21.9978 9.01021 21.9356 7.94735ZM11.9922 17.1621C9.15571 17.1621 6.85784 14.8643 6.85784 12.0278C6.85784 9.19124 9.15571 6.89338 11.9922 6.89338C13.354 6.89338 14.6599 7.43432 15.6228 8.3972C16.5857 9.36009 17.1266 10.666 17.1266 12.0278C17.1266 13.3895 16.5857 14.6954 15.6228 15.6583C14.6599 16.6212 13.354 17.1621 11.9922 17.1621ZM17.331 7.90071C17.1737 7.90085 17.0179 7.86998 16.8726 7.80987C16.7273 7.74975 16.5953 7.66157 16.4841 7.55037C16.3729 7.43916 16.2847 7.30712 16.2246 7.1618C16.1644 7.01648 16.1336 6.86073 16.1337 6.70346C16.1337 6.54631 16.1647 6.3907 16.2248 6.24551C16.285 6.10032 16.3731 5.96839 16.4842 5.85727C16.5953 5.74615 16.7273 5.658 16.8725 5.59786C17.0176 5.53772 17.1733 5.50677 17.3304 5.50677C17.4876 5.50677 17.6432 5.53772 17.7884 5.59786C17.9336 5.658 18.0655 5.74615 18.1766 5.85727C18.2877 5.96839 18.3759 6.10032 18.436 6.24551C18.4961 6.3907 18.5271 6.54631 18.5271 6.70346C18.5271 7.36539 17.9918 7.90071 17.331 7.90071Z" fill="#303632"/>
<path d="M11.9924 15.3631C13.8344 15.3631 15.3276 13.8699 15.3276 12.0279C15.3276 10.186 13.8344 8.69275 11.9924 8.69275C10.1504 8.69275 8.65723 10.186 8.65723 12.0279C8.65723 13.8699 10.1504 15.3631 11.9924 15.3631Z" fill="#303632"/>
</svg>
