<svg width="24" height="24" viewBox="0 0 24 24" fill="none" xmlns="http://www.w3.org/2000/svg">
<path d="M16.2801 22.1H12.4801C11.9201 22.1 10.7001 21.93 10.0501 21.28L7.02011 18.94L7.94011 17.75L11.0401 20.15C11.2901 20.39 11.9201 20.59 12.4801 20.59H16.2801C17.1801 20.59 18.1501 19.87 18.3501 19.06L20.7701 11.71C20.9301 11.27 20.9001 10.87 20.6901 10.58C20.4701 10.27 20.0701 10.09 19.5801 10.09H15.5801C15.0601 10.09 14.5801 9.87001 14.2501 9.49001C13.9101 9.10001 13.7601 8.58001 13.8401 8.04001L14.3401 4.83001C14.4601 4.27001 14.0801 3.64001 13.5401 3.46001C13.0501 3.28001 12.4201 3.54001 12.2001 3.86001L8.10011 9.96001L6.86011 9.13001L10.9601 3.03001C11.5901 2.09001 12.9701 1.64001 14.0501 2.05001C15.3001 2.46001 16.1001 3.84001 15.8201 5.12001L15.3301 8.27001C15.3201 8.34001 15.3201 8.44001 15.3901 8.52001C15.4401 8.57001 15.5101 8.60001 15.5901 8.60001H19.5901C20.5701 8.60001 21.4201 9.01001 21.9201 9.72001C22.4101 10.41 22.5101 11.32 22.1901 12.2L19.8001 19.48C19.4301 20.93 17.8901 22.1 16.2801 22.1Z" fill="#030A05"/>
<path d="M5.37988 21H4.37988C2.52988 21 1.62988 20.13 1.62988 18.35V8.54999C1.62988 6.76999 2.52988 5.89999 4.37988 5.89999H5.37988C7.22988 5.89999 8.12988 6.76999 8.12988 8.54999V18.35C8.12988 20.13 7.22988 21 5.37988 21ZM4.37988 7.39999C3.28988 7.39999 3.12988 7.65999 3.12988 8.54999V18.35C3.12988 19.24 3.28988 19.5 4.37988 19.5H5.37988C6.46988 19.5 6.62988 19.24 6.62988 18.35V8.54999C6.62988 7.65999 6.46988 7.39999 5.37988 7.39999H4.37988Z" fill="#030A05"/>
</svg>
