<svg width="24" height="25" viewBox="0 0 24 25" fill="none" xmlns="http://www.w3.org/2000/svg">
<path fill-rule="evenodd" clip-rule="evenodd" d="M2 3.70534C2 3.26218 2.17604 2.83718 2.4894 2.52382C2.80275 2.21047 3.22776 2.03443 3.67091 2.03443H20.3273C20.5469 2.03407 20.7644 2.07703 20.9674 2.16085C21.1704 2.24467 21.3548 2.36771 21.5102 2.52291C21.6656 2.67812 21.7888 2.86245 21.8729 3.06534C21.9569 3.26824 22.0001 3.48572 22 3.70534V20.3617C22.0002 20.5814 21.9572 20.7989 21.8732 21.0019C21.7893 21.2049 21.6662 21.3893 21.5109 21.5447C21.3556 21.7001 21.1713 21.8233 20.9683 21.9073C20.7654 21.9914 20.5478 22.0345 20.3282 22.0344H3.67091C3.45141 22.0344 3.23405 21.9912 3.03127 21.9071C2.82849 21.8231 2.64425 21.7 2.48908 21.5447C2.33391 21.3895 2.21085 21.2051 2.12693 21.0023C2.04301 20.7995 1.99988 20.5821 2 20.3626V3.70534ZM9.91636 9.65988H12.6245V11.0199C13.0155 10.2381 14.0155 9.53443 15.5182 9.53443C18.3991 9.53443 19.0818 11.0917 19.0818 13.949V19.2417H16.1664V14.5999C16.1664 12.9726 15.7755 12.0544 14.7827 12.0544C13.4055 12.0544 12.8327 13.0444 12.8327 14.5999V19.2417H9.91636V9.65988ZM4.91636 19.1172H7.83273V9.53443H4.91636V19.1162V19.1172Z" fill="#303632"/>
<path fill-rule="evenodd" clip-rule="evenodd" d="M8.24997 6.40899C8.25546 6.6587 8.21103 6.90698 8.11927 7.13928C8.02752 7.37158 7.89029 7.58321 7.71563 7.76175C7.54098 7.94029 7.33242 8.08215 7.1022 8.179C6.87198 8.27585 6.62473 8.32574 6.37497 8.32574C6.1252 8.32574 5.87796 8.27585 5.64773 8.179C5.41751 8.08215 5.20896 7.94029 5.0343 7.76175C4.85965 7.58321 4.72241 7.37158 4.63066 7.13928C4.5389 6.90698 4.49447 6.6587 4.49997 6.40899C4.51076 5.91886 4.71304 5.45244 5.0635 5.10962C5.41395 4.7668 5.88471 4.57483 6.37497 4.57483C6.86522 4.57483 7.33598 4.7668 7.68643 5.10962C8.03689 5.45244 8.23917 5.91886 8.24997 6.40899Z" fill="white"/>
</svg>
