<svg width="48" height="49" viewBox="0 0 48 49" fill="none" xmlns="http://www.w3.org/2000/svg">
<path d="M12.6869 41.5914L13.4716 41.9838C16.7416 43.9456 20.4037 44.8612 24.0659 44.8612C35.5756 44.8612 44.9926 35.4442 44.9926 23.9345C44.9926 18.4413 42.769 13.0788 38.8454 9.155C34.9216 5.23119 29.6898 3.00781 24.0659 3.00781C12.5562 3.00781 3.13903 12.4248 3.2699 24.0654C3.2699 27.989 4.44703 31.7821 6.40884 35.0517L6.93197 35.8366L4.83947 43.5534L12.6869 41.5914Z" fill="#00E676"/>
<path d="M41.0687 7.06275C36.6217 2.48513 30.4746 0 24.1965 0C10.8559 0 0.130875 10.8557 0.261562 24.0656C0.261562 28.251 1.43869 32.3057 3.40069 35.9678L0 48.393L12.6868 45.1232C16.2182 47.0852 20.1418 48.0007 24.0658 48.0007C37.2757 48.0007 48.0007 37.1449 48.0007 23.9351C48.0007 17.5262 45.5156 11.5097 41.0689 7.06275H41.0687ZM24.1965 43.9463C20.6651 43.9463 17.1337 43.0309 14.1255 41.1997L13.3408 40.8073L5.75494 42.7691L7.71675 35.3141L7.19363 34.5293C1.43869 25.2431 4.18537 12.9484 13.6024 7.19344C23.0194 1.43869 35.1831 4.18537 40.938 13.6024C46.6927 23.0194 43.9461 35.1831 34.5293 40.938C31.5208 42.8998 27.8588 43.9461 24.1965 43.9461V43.9463ZM35.7062 29.4285L34.2675 28.7745C34.2675 28.7745 32.175 27.8589 30.867 27.2049C30.7361 27.2049 30.6054 27.0741 30.4746 27.0741C30.0821 27.0741 29.8206 27.2049 29.559 27.3358C29.559 27.3358 29.4283 27.4665 27.5972 29.5592C27.4663 29.8208 27.2048 29.9516 26.9432 29.9516H26.8123C26.6816 29.9516 26.4201 29.8207 26.2892 29.6901L25.6352 29.4285C24.1965 28.7745 22.8887 27.9896 21.8422 26.9434C21.5807 26.6818 21.1882 26.4202 20.9267 26.1587C20.0111 25.2431 19.0956 24.1967 18.4417 23.0196L18.3109 22.758C18.1802 22.6271 18.1802 22.4964 18.0493 22.2349C18.0493 21.9733 18.0493 21.7118 18.1802 21.5809C18.1802 21.5809 18.7033 20.9269 19.0956 20.5346C19.3573 20.2729 19.488 19.8806 19.7496 19.6191C20.0111 19.2266 20.142 18.7035 20.0111 18.3111C19.8804 17.6571 18.3109 14.1257 17.9186 13.341C17.6569 12.9486 17.3955 12.8179 17.0031 12.687H15.5644C15.3026 12.687 15.0412 12.8179 14.7795 12.8179L14.6486 12.9486C14.3871 13.0794 14.1255 13.341 13.8639 13.4717C13.6024 13.7334 13.4715 13.9948 13.2099 14.2566C12.2944 15.4337 11.7712 16.8724 11.7712 18.3111C11.7712 19.3573 12.0328 20.4038 12.4252 21.3193L12.5561 21.7118C13.7333 24.1967 15.3026 26.4202 17.3955 28.3821L17.9186 28.9052C18.3109 29.2976 18.7033 29.5592 18.9649 29.9514C21.7116 32.3059 24.8505 34.0061 28.3819 34.9217C28.7743 35.0524 29.2974 35.0524 29.6899 35.1833H30.9977C31.6517 35.1833 32.4364 34.9217 32.9597 34.6601C33.3519 34.3986 33.6135 34.3986 33.8751 34.137L34.1368 33.8753C34.3984 33.6137 34.6599 33.483 34.9215 33.2214C35.1831 32.9599 35.4446 32.6983 35.5755 32.4366C35.8371 31.9134 35.9678 31.2594 36.0986 30.6056V29.6901C36.0986 29.6901 35.9678 29.5592 35.7062 29.4285Z" fill="white"/>
</svg>
