<svg width="48" height="40" viewBox="0 0 48 40" fill="none" xmlns="http://www.w3.org/2000/svg">
<path d="M48 5.45955C46.2026 6.25581 44.2961 6.77848 42.3439 7.01017C44.3773 5.79142 45.9386 3.86148 46.6738 1.56198C44.7408 2.70908 42.6259 3.51728 40.4205 3.95167C38.6241 2.03786 36.0649 0.841797 33.2323 0.841797C27.7937 0.841797 23.3843 5.25105 23.3843 10.6893C23.3843 11.4612 23.4714 12.2127 23.6392 12.9337C15.4549 12.5229 8.19862 8.60242 3.34144 2.64442C2.49394 4.09886 2.00831 5.79067 2.00831 7.59517C2.00831 11.0118 3.747 14.0259 6.38925 15.7919C4.82541 15.7429 3.29597 15.3206 1.92863 14.56C1.92806 14.6013 1.92806 14.6425 1.92806 14.684C1.92806 19.4553 5.32256 23.4355 9.82744 24.3402C8.37729 24.7346 6.85618 24.7923 5.38031 24.509C6.63338 28.4214 10.2703 31.2684 14.5794 31.348C11.2091 33.9892 6.96281 35.5636 2.34919 35.5636C1.55419 35.5636 0.770438 35.5169 0 35.426C4.35806 38.2201 9.53438 39.8504 15.0956 39.8504C33.2094 39.8504 43.1145 24.8446 43.1145 11.8314C43.1145 11.4042 43.1051 10.9795 43.086 10.5573C45.0139 9.16358 46.678 7.43732 48 5.45955Z" fill="#55ACEE"/>
</svg>
