<svg width="48" height="49" viewBox="0 0 48 49" fill="none" xmlns="http://www.w3.org/2000/svg">
<path d="M45.3508 48.2814C46.8137 48.2814 48 47.0953 48 45.6322V2.93044C48 1.46719 46.8137 0.28125 45.3508 0.28125H2.64919C1.18575 0.28125 0 1.46719 0 2.93044V45.6322C0 47.0953 1.18575 48.2814 2.64919 48.2814H45.3508Z" fill="#395185"/>
<path d="M33.1189 48.2817V29.6936H39.3583L40.2924 22.4495H33.1189V17.8242C33.1189 15.7269 33.7014 14.2976 36.7091 14.2976L40.5452 14.2959V7.81681C39.8814 7.7285 37.6044 7.53125 34.9554 7.53125C29.4246 7.53125 25.6382 10.9072 25.6382 17.1071V22.4495H19.3828V29.6936H25.6382V48.2817H33.1189Z" fill="white"/>
</svg>
