<svg width="25" height="24" viewBox="0 0 25 24" fill="none" xmlns="http://www.w3.org/2000/svg">
<path d="M21.6396 7.75H3.63965C3.22965 7.75 2.88965 7.41 2.88965 7C2.88965 6.59 3.22965 6.25 3.63965 6.25H21.6396C22.0496 6.25 22.3896 6.59 22.3896 7C22.3896 7.41 22.0496 7.75 21.6396 7.75Z" fill="#030A05"/>
<path d="M21.6396 12.75H3.63965C3.22965 12.75 2.88965 12.41 2.88965 12C2.88965 11.59 3.22965 11.25 3.63965 11.25H21.6396C22.0496 11.25 22.3896 11.59 22.3896 12C22.3896 12.41 22.0496 12.75 21.6396 12.75Z" fill="#030A05"/>
<path d="M21.6396 17.75H3.63965C3.22965 17.75 2.88965 17.41 2.88965 17C2.88965 16.59 3.22965 16.25 3.63965 16.25H21.6396C22.0496 16.25 22.3896 16.59 22.3896 17C22.3896 17.41 22.0496 17.75 21.6396 17.75Z" fill="#030A05"/>
</svg>
