<svg width="16" height="16" viewBox="0 0 16 16" fill="none" xmlns="http://www.w3.org/2000/svg">
<path d="M13.7471 8.7134C13.4937 8.7134 13.2804 8.52007 13.2471 8.26673C13.0871 6.76007 12.2737 5.3934 11.0204 4.52673C10.7937 4.36673 10.7404 4.06007 10.8937 3.8334C11.0537 3.60673 11.3671 3.5534 11.5871 3.70673C13.0804 4.74007 14.0404 6.36673 14.2337 8.16007C14.2604 8.4334 14.0671 8.68007 13.7871 8.7134C13.7804 8.7134 13.7604 8.7134 13.7471 8.7134Z" fill="#5E625F"/>
<path d="M2.3266 8.74668C2.3066 8.74668 2.29327 8.74668 2.27327 8.74668C1.99994 8.71334 1.79994 8.46668 1.8266 8.19334C2.0066 6.40001 2.95994 4.78001 4.43327 3.73334C4.65994 3.57334 4.97327 3.62668 5.13327 3.85334C5.29327 4.08001 5.23994 4.39334 5.01327 4.55334C3.77327 5.42668 2.97327 6.79334 2.81994 8.30001C2.79994 8.55334 2.57994 8.74668 2.3266 8.74668Z" fill="#5E625F"/>
<path d="M8.03965 15.0732C7.05298 15.0732 6.11298 14.8466 5.23298 14.4066C4.98632 14.2799 4.88632 13.9799 5.01298 13.7332C5.13965 13.4866 5.43965 13.3866 5.68632 13.5132C7.12632 14.2399 8.85965 14.2532 10.313 13.5532C10.5597 13.4332 10.8597 13.5399 10.9797 13.7866C11.0997 14.0332 10.993 14.3332 10.7463 14.4532C9.89299 14.8666 8.98632 15.0732 8.03965 15.0732Z" fill="#5E625F"/>
<path d="M8.03986 5.62659C6.73986 5.62659 5.68652 4.57325 5.68652 3.27325C5.68652 1.97325 6.73986 0.919922 8.03986 0.919922C9.33986 0.919922 10.3932 1.97325 10.3932 3.27325C10.3932 4.57325 9.33319 5.62659 8.03986 5.62659ZM8.03986 1.92659C7.29319 1.92659 6.68652 2.53326 6.68652 3.27992C6.68652 4.02659 7.29319 4.63325 8.03986 4.63325C8.78652 4.63325 9.39319 4.02659 9.39319 3.27992C9.39319 2.53326 8.77986 1.92659 8.03986 1.92659Z" fill="#5E625F"/>
<path d="M3.21954 13.7799C1.91954 13.7799 0.866211 12.7266 0.866211 11.4266C0.866211 10.1332 1.91954 9.07324 3.21954 9.07324C4.51954 9.07324 5.57288 10.1266 5.57288 11.4266C5.57288 12.7199 4.51954 13.7799 3.21954 13.7799ZM3.21954 10.0732C2.47288 10.0732 1.86621 10.6799 1.86621 11.4266C1.86621 12.1732 2.47288 12.7799 3.21954 12.7799C3.96621 12.7799 4.57288 12.1732 4.57288 11.4266C4.57288 10.6799 3.96621 10.0732 3.21954 10.0732Z" fill="#5E625F"/>
<path d="M12.7801 13.7799C11.4801 13.7799 10.4268 12.7266 10.4268 11.4266C10.4268 10.1332 11.4801 9.07324 12.7801 9.07324C14.0801 9.07324 15.1334 10.1266 15.1334 11.4266C15.1268 12.7199 14.0734 13.7799 12.7801 13.7799ZM12.7801 10.0732C12.0334 10.0732 11.4268 10.6799 11.4268 11.4266C11.4268 12.1732 12.0334 12.7799 12.7801 12.7799C13.5268 12.7799 14.1334 12.1732 14.1334 11.4266C14.1268 10.6799 13.5268 10.0732 12.7801 10.0732Z" fill="#5E625F"/>
</svg>
