<svg width="14" height="13" viewBox="0 0 14 13" fill="none" xmlns="http://www.w3.org/2000/svg">
<path d="M6.43486 0.496073C6.61204 -0.0492512 7.38353 -0.0492523 7.56072 0.496072L8.72536 4.08046C8.8046 4.32434 9.03186 4.48945 9.28829 4.48945H13.0571C13.6305 4.48945 13.8689 5.22318 13.405 5.56021L10.356 7.77549C10.1485 7.92621 10.0617 8.19337 10.141 8.43725L11.3056 12.0216C11.4828 12.567 10.8586 13.0204 10.3948 12.6834L7.3457 10.4681C7.13824 10.3174 6.85733 10.3174 6.64988 10.4681L3.60081 12.6834C3.13693 13.0204 2.51279 12.567 2.68997 12.0216L3.85461 8.43725C3.93385 8.19337 3.84704 7.92621 3.63959 7.77549L0.590529 5.56021C0.126649 5.22318 0.365051 4.48945 0.938439 4.48945H4.70729C4.96371 4.48945 5.19098 4.32434 5.27022 4.08046L6.43486 0.496073Z" fill="#FF9933"/>
</svg>
