<svg width="24" height="25" viewBox="0 0 24 25" fill="none" xmlns="http://www.w3.org/2000/svg">
<path d="M23.643 4.97138C22.808 5.34138 21.911 5.59138 20.968 5.70438C21.941 5.12217 22.669 4.20584 23.016 3.12638C22.1019 3.66937 21.1014 4.05157 20.058 4.25638C19.3564 3.50724 18.4271 3.0107 17.4143 2.84385C16.4016 2.677 15.3621 2.84917 14.4572 3.33363C13.5524 3.81809 12.8328 4.58774 12.4102 5.52308C11.9875 6.45842 11.8855 7.50713 12.12 8.50638C10.2677 8.41337 8.45564 7.93193 6.80144 7.09328C5.14723 6.25464 3.68785 5.07754 2.51801 3.63838C2.11801 4.32838 1.88801 5.12838 1.88801 5.98038C1.88757 6.74737 2.07644 7.50262 2.43789 8.17911C2.79934 8.8556 3.32217 9.43242 3.96001 9.85838C3.22029 9.83484 2.49688 9.63496 1.85001 9.27538V9.33538C1.84994 10.4111 2.22204 11.4538 2.90319 12.2864C3.58434 13.119 4.53258 13.6903 5.58701 13.9034C4.9008 14.0891 4.18135 14.1164 3.48301 13.9834C3.78051 14.909 4.36001 15.7184 5.14038 16.2983C5.92075 16.8782 6.86293 17.1996 7.83501 17.2174C6.18484 18.5128 4.1469 19.2155 2.04901 19.2124C1.67739 19.2125 1.30609 19.1908 0.937012 19.1474C3.06649 20.5166 5.54535 21.2432 8.07701 21.2404C16.647 21.2404 21.332 14.1424 21.332 7.98638C21.332 7.78638 21.327 7.58438 21.318 7.38438C22.2293 6.72535 23.0159 5.90927 23.641 4.97438L23.643 4.97138Z" fill="#303632"/>
</svg>
