<svg width="16" height="16" viewBox="0 0 16 16" fill="none" xmlns="http://www.w3.org/2000/svg">
<path d="M3.43359 15.1666C3.16026 15.1666 2.93359 14.9399 2.93359 14.6666V1.33325C2.93359 1.05992 3.16026 0.833252 3.43359 0.833252C3.70693 0.833252 3.93359 1.05992 3.93359 1.33325V14.6666C3.93359 14.9399 3.70693 15.1666 3.43359 15.1666Z" fill="#5E625F"/>
<path d="M10.9003 11.1667H3.43359C3.16026 11.1667 2.93359 10.9401 2.93359 10.6667C2.93359 10.3934 3.16026 10.1667 3.43359 10.1667H10.9003C11.6269 10.1667 11.9669 9.97341 12.0336 9.80675C12.1003 9.64008 12.0003 9.26675 11.4803 8.75342L10.6803 7.95341C10.3536 7.66675 10.1536 7.23342 10.1336 6.75342C10.1136 6.24675 10.3136 5.74675 10.6803 5.38008L11.4803 4.58008C11.9736 4.08675 12.1269 3.68675 12.0536 3.51341C11.9803 3.34008 11.6003 3.16675 10.9003 3.16675H3.43359C3.15359 3.16675 2.93359 2.94008 2.93359 2.66675C2.93359 2.39341 3.16026 2.16675 3.43359 2.16675H10.9003C12.3603 2.16675 12.8269 2.77341 12.9803 3.13341C13.1269 3.49341 13.2269 4.25341 12.1869 5.29341L11.3869 6.09342C11.2203 6.26008 11.1269 6.49341 11.1336 6.72675C11.1403 6.92675 11.2203 7.10675 11.3603 7.23342L12.1869 8.05341C13.2069 9.07341 13.1069 9.83342 12.9603 10.2001C12.8069 10.5534 12.3336 11.1667 10.9003 11.1667Z" fill="#5E625F"/>
</svg>
